<svg version="1.1" id="Layer_1" xmlns="http://www.w3.org/2000/svg" xmlns:xlink="http://www.w3.org/1999/xlink" x="0px" y="0px"
	 width="100%" viewBox="0 0 1024 1024" enable-background="new 0 0 1024 1024" xml:space="preserve">
<path fill="#000000" opacity="1.000000" stroke="none" 
	d="
M328.048553,642.245850 
	C284.500946,646.284546 249.891006,629.931213 222.104691,597.835083 
	C206.317337,579.598938 197.073853,558.076050 193.998337,534.287598 
	C189.051010,496.021271 198.794739,461.626160 223.577255,431.854462 
	C247.853104,402.691345 278.993164,385.210632 316.500763,380.121765 
	C338.333984,377.159485 359.926819,380.157501 380.977631,387.027313 
	C412.204163,397.217926 438.542206,415.277100 462.537415,437.126343 
	C490.546570,462.630585 514.958557,491.588806 540.863037,519.115112 
	C561.187134,540.711609 581.713196,562.117981 602.103394,583.652405 
	C617.110352,599.501465 631.923950,615.535339 647.050720,631.268494 
	C656.990417,641.606628 667.370422,651.442505 680.554749,657.816833 
	C713.232849,673.615723 754.425781,664.339478 776.198547,635.104614 
	C798.702576,604.887817 790.954956,552.369202 743.582275,538.349976 
	C717.149231,530.527527 692.911194,536.463684 670.280579,550.993408 
	C654.519226,561.112793 640.350769,573.244690 626.646912,585.951050 
	C621.637146,590.596130 621.587280,590.525879 616.856628,585.427368 
	C611.984497,580.176331 607.078979,574.956177 602.219299,569.693665 
	C600.457397,567.785706 599.632935,565.958557 602.134766,563.768433 
	C620.813293,547.417236 639.157349,530.639282 661.071045,518.505432 
	C681.883545,506.981354 703.975586,499.947235 727.969849,501.838593 
	C774.429077,505.500824 811.221130,535.672607 819.940918,581.863159 
	C825.354004,610.537537 816.249634,636.003723 798.137390,658.096985 
	C781.256531,678.688171 759.708740,692.340332 733.220947,697.394714 
	C702.737427,703.211548 675.497437,695.278381 650.791321,677.406677 
	C631.893860,663.736877 616.878296,645.951904 600.712463,629.396118 
	C580.569336,608.767029 561.125305,587.492065 541.964844,565.952820 
	C540.459778,564.260864 539.126099,562.281677 536.724854,561.364258 
	C535.313416,564.300537 537.074036,566.947449 537.300781,569.636536 
	C538.657471,585.724365 539.295837,601.830444 539.219360,617.971008 
	C539.176697,626.962463 539.934387,635.901001 541.042419,644.817871 
	C542.102234,653.346741 546.735535,659.586792 553.511841,664.453430 
	C564.934143,672.656799 575.661377,681.412720 582.882202,693.935669 
	C606.613037,735.091248 580.859436,787.319885 534.194763,795.271790 
	C498.735565,801.314270 464.641876,779.821655 455.524811,744.064331 
	C448.524658,716.609558 459.588959,686.087158 482.951050,670.090210 
	C486.108978,667.927917 489.096588,665.518555 492.212616,663.292969 
	C501.727325,656.497192 505.237122,646.672424 505.695496,635.597656 
	C506.362762,619.475220 506.985931,603.319763 505.702057,587.209595 
	C504.932312,577.551025 503.538300,567.739563 496.221283,560.492065 
	C486.389435,550.753784 469.485687,550.207703 456.977631,558.837769 
	C449.532959,563.974182 443.337036,570.550537 436.887268,576.818298 
	C421.478851,591.791809 406.545197,607.292725 388.504822,619.277710 
	C370.213074,631.429688 350.617493,640.105774 328.048553,642.245850 
M310.647369,609.723511 
	C326.200958,610.426331 341.156921,607.804138 355.275330,601.195984 
	C374.719971,592.094910 390.797791,578.388916 405.661987,563.224609 
	C416.738098,551.924927 427.486267,540.252014 440.519104,531.171570 
	C454.980499,521.095825 470.832520,516.097351 488.646912,520.234497 
	C491.069031,520.796997 493.521240,521.229736 496.801788,521.892822 
	C494.677490,519.189026 493.262817,517.130981 491.594421,515.304749 
	C474.643188,496.749817 458.055511,477.853821 439.491150,460.831146 
	C420.924652,443.806458 400.892181,429.095062 376.828217,420.752350 
	C349.251984,411.191956 321.550415,409.786377 293.812134,420.204163 
	C249.875031,436.705719 218.761353,480.749573 225.235428,528.962341 
	C228.324417,551.966309 237.835709,571.599670 255.517776,586.884827 
	C271.068909,600.327881 288.915771,608.564026 310.647369,609.723511 
z"/>
<path fill="#000000" opacity="1.000000" stroke="none" 
	d="
M672.597168,469.603638 
	C662.239990,479.789642 651.643127,489.120453 640.133972,497.465149 
	C610.094604,519.245117 571.854614,522.095947 541.511841,503.116302 
	C515.720581,486.983673 500.226746,463.517731 496.707062,432.798798 
	C494.575317,414.193176 496.247437,395.524445 495.740265,376.891449 
	C495.512939,368.538727 494.430359,360.303192 492.219604,352.283936 
	C490.184265,344.901031 486.292877,338.590820 479.878265,334.010010 
	C474.457855,330.139130 469.075745,326.198151 463.871124,322.044556 
	C446.661804,308.310577 436.389923,290.818359 434.651398,268.521698 
	C432.135834,236.259399 444.604858,211.157745 471.600891,194.041656 
	C500.642029,175.628922 533.913879,178.131058 561.238403,198.856659 
	C577.640625,211.297729 587.856750,227.908325 590.891479,248.145615 
	C595.374268,278.040131 585.416626,302.816101 561.921082,321.971893 
	C558.440857,324.809296 554.820862,327.541290 550.992065,329.873138 
	C537.950562,337.815948 532.980042,350.202606 531.286133,364.552979 
	C529.075867,383.276611 528.598389,402.075836 529.339478,420.876465 
	C530.042847,438.720367 535.118408,455.098419 548.747681,467.552277 
	C565.608337,482.958832 591.424438,485.475739 612.122986,474.554138 
	C627.906616,466.225952 640.294067,453.876465 652.217712,441.081146 
	C672.100891,419.744385 690.791626,397.402557 706.934692,373.026459 
	C714.458923,361.664703 717.644470,349.822876 716.069824,335.769073 
	C712.170410,300.966492 736.226746,269.841064 770.746887,264.058228 
	C806.158264,258.126068 842.559692,281.123718 847.946350,319.522888 
	C853.799011,361.243256 823.703491,389.613403 792.650513,394.482574 
	C781.100891,396.293610 770.118591,394.191284 759.057190,391.944427 
	C748.391479,389.777893 739.397583,392.125885 731.790710,400.148010 
	C723.968018,408.397675 717.389587,417.628143 710.354797,426.495789 
	C698.538513,441.390533 686.031250,455.666199 672.597168,469.603638 
z"/>
</svg>